# xmcd CD database file
#
# Track frame offsets:
#	150
#	18483
#	35351
#	52343
#	71698
#	90125
#	108724
#
# Disc length: 1680 seconds
#
# Revision: 0
# Processed by: cddbd v1.5.2PL0 Copyright (c) Steve Scherf et al.
# Submitted via: CDex 1.79
#
DISCID=59068e07
DTITLE=Chris Saucedo Band - Leaving San Antone
DYEAR=2015
DGENRE=Country
TTITLE0=Faded Dream
TTITLE1=Leaving San Antone
TTITLE2=Why Do I
TTITLE3=The Best Of Me
TTITLE4=Everything Is Gonna Be Allright
TTITLE5=Here Comes The Rain
TTITLE6=She Fights Like The Devil
EXTD=YEAR: 2015
EXTT0=
EXTT1=
EXTT2=
EXTT3=
EXTT4=
EXTT5=
EXTT6=
PLAYORDER=
